<svg width="40px" height="34px" viewBox="0 0 40 34" version="1.1" xmlns="http://www.w3.org/2000/svg" xmlns:xlink="http://www.w3.org/1999/xlink">
    <defs>
        <path d="M21.6757683,21.0200109 L21.6757683,31.9963216 C21.6757683,32.9167962 20.9295762,33.6629883 20.0091016,33.6629883 C19.088627,33.6629883 18.342435,32.9167962 18.342435,31.9963216 L18.342435,21.0200109 L14.5209463,24.8414996 C13.8700724,25.4923734 12.8147975,25.4923734 12.1639237,24.8414996 C11.5130498,24.1906257 11.5130498,23.1353508 12.1639237,22.484477 L18.8305903,15.8178103 C19.4814641,15.1669365 20.5367391,15.1669365 21.1876129,15.8178103 L27.8542796,22.484477 C28.5051534,23.1353508 28.5051534,24.1906257 27.8542796,24.8414996 C27.2034058,25.4923734 26.1481308,25.4923734 25.497257,24.8414996 L21.6757683,21.0200109 Z M16.701844,0.430582143 C22.4352639,1.08521806 27.2430277,4.95996067 29.1412036,10.3296551 L30.010202,10.3296553 C34.5805594,10.3326728 38.5672841,13.4338946 39.6946163,17.8630365 C40.8219485,22.2921785 38.8029777,26.9220065 34.790202,29.1096553 C33.9820251,29.5502499 32.9696958,29.2522655 32.5291013,28.4440886 C32.0885067,27.6359118 32.386491,26.6235825 33.1946679,26.1829879 C35.8698517,24.7245553 37.2158322,21.6380034 36.4642774,18.6852421 C35.7127226,15.7324808 33.0549062,13.6649996 30.0091016,13.6629883 L27.9091016,13.6629883 C27.1493014,13.6629883 26.4856744,13.1491134 26.2954909,12.4135003 C25.0866509,7.73781355 21.1219531,4.29025663 16.3237043,3.74239759 C11.5254555,3.19453854 6.88565624,5.65964295 4.65394012,9.94249064 C2.42222401,14.2253383 3.05998098,19.4404839 6.25799087,23.0593337 C6.86752246,23.7490762 6.80249868,24.8023459 6.1127562,25.4118775 C5.42301371,26.0214091 4.36974397,25.9563853 3.76021237,25.2666428 C-0.351514627,20.6138359 -1.17148787,13.9086488 1.69786142,8.40213036 C4.56721071,2.8956119 10.5326669,-0.273808062 16.701844,0.430582143 Z" id="path-1"></path>
    </defs>
    <g id="Symbols" stroke="none" stroke-width="1" fill="none" fill-rule="evenodd">
        <g id="Pickers/Drag&amp;Drop/Basic" transform="translate(-245.000000, -40.000000)">
            <g id="ICONS/DragNDrop" transform="translate(245.000000, 40.000000)">
                <g>
                    <mask id="mask-2" fill="white">
                        <use xlink:href="#path-1"></use>
                    </mask>
                    <use id="Combined-Shape" fill="#252C42" xlink:href="#path-1"></use>
                </g>
            </g>
        </g>
    </g>
</svg>
