<svg width="34px" height="34px" viewBox="0 0 34 34" version="1.1" xmlns="http://www.w3.org/2000/svg" xmlns:xlink="http://www.w3.org/1999/xlink">
    <g id="Symbols" stroke="none" stroke-width="1" fill="none" fill-rule="evenodd">
        <g id="Pickers/Drag&amp;Drop/Uploading" transform="translate(-248.000000, -53.000000)">
            <g id="Icons/Loader/In-Progress" transform="translate(240.000000, 46.000000)">
                <g id="Icons/Loader">
                    <g id="Group" transform="translate(24.676644, 24.305840) rotate(-141.808523) translate(-24.676644, -24.305840) translate(7.676644, 6.805840)" fill-rule="nonzero">
                        <path d="M16.9349569,34.881479 C7.59373452,34.881479 -0.00621955022,27.2815249 -0.00621955022,17.9403025 C-0.00621955022,8.59908009 7.59373452,0.99912602 16.9349569,0.99912602 C26.2761793,0.99912602 33.8761334,8.59908009 33.8761334,17.9403025 C33.8761334,27.2815249 26.2761793,34.881479 16.9349569,34.881479 Z M16.9349569,3.82265543 C9.15026017,3.82265543 2.81730986,10.1556057 2.81730986,17.9403025 C2.81730986,25.7249992 9.15026017,32.0579495 16.9349569,32.0579495 C24.7196537,32.0579495 31.052604,25.7249992 31.052604,17.9403025 C31.052604,10.1556057 24.7196537,3.82265543 16.9349569,3.82265543 Z" id="Shape" fill="#9FA8BE" opacity="0.4"></path>
                        <path d="M33.8761334,17.9403025 L31.052604,17.9403025 C31.052604,10.1556057 24.7196537,3.82265543 16.9349569,3.82265543 L16.9349569,0.99912602 C26.2761793,0.99912602 33.8761334,8.59908009 33.8761334,17.9403025 Z" id="Path" fill="#4880FF">
                          <animateTransform
                            attributeName="transform"
                            attributeType="XML"
                            type="rotate"
                            dur="1s"
                            from="0 17 17"
                            to="360 17 17"
                            repeatCount="indefinite" />
                        </path>
                    </g>
                </g>
            </g>
        </g>
    </g>
</svg>
