
<svg width="23px" height="22px" viewBox="0 0 23 22" version="1.1" xmlns="http://www.w3.org/2000/svg" xmlns:xlink="http://www.w3.org/1999/xlink">
    <g id="Page-1" stroke="none" stroke-width="1" fill-rule="evenodd">
        <g id="my-experience" transform="translate(-950.000000, -541.000000)" fill-rule="nonzero">
            <g id="personal-details" transform="translate(387.000000, 140.000000)">
                <g id="RTW" transform="translate(0.000000, 363.000000)">
                    <path d="M568.99707,38 C568.600105,38 568.27832,38.321188 568.27832,38.7173912 L568.27832,41.4748638 C567.444876,41.7733965 566.84082,42.571138 566.84082,43.4999994 C566.84082,44.6801151 567.814727,45.6521731 568.99707,45.6521731 C570.179414,45.6521731 571.15332,44.6801151 571.15332,43.4999994 C571.15332,42.571138 570.549265,41.7733965 569.71582,41.4748638 L569.71582,38.7173912 C569.71582,38.321188 569.394012,38 568.99707,38 Z M580.017904,38 C579.620938,38 579.299154,38.321188 579.299154,38.7173912 L579.299154,41.4748638 C578.465708,41.7733965 577.861654,42.571138 577.861654,43.4999994 C577.861654,44.6801151 578.83556,45.6521731 580.017904,45.6521731 C581.200247,45.6521731 582.174154,44.6801151 582.174154,43.4999994 C582.174154,42.571138 581.570099,41.7733965 580.736654,41.4748638 L580.736654,38.7173912 C580.736654,38.321188 580.414845,38 580.017904,38 Z M565.642904,39.4347825 C564.191316,39.4347825 563,40.6238608 563,42.0726898 L563,57.3620807 C563,58.810924 564.191316,60 565.642904,60 L583.357096,60 C584.80866,60 586,58.810924 586,57.3620807 L586,42.0726898 C586,40.6238608 584.80866,39.4347825 583.357096,39.4347825 L581.927083,39.4347825 C581.547368,39.4294259 581.200846,39.7731281 581.200846,40.1521737 C581.200846,40.5312193 581.547368,40.8749238 581.927083,40.8695649 L583.357096,40.8695649 C584.035788,40.8695649 584.5625,41.395262 584.5625,42.0726898 L584.5625,46.1304339 L564.4375,46.1304339 L564.4375,42.0726898 C564.4375,41.395262 564.964188,40.8695649 565.642904,40.8695649 L567.072917,40.8695649 C567.452632,40.8749214 567.799154,40.5312193 567.799154,40.1521737 C567.799154,39.7731281 567.452632,39.4294235 567.072917,39.4347825 L565.642904,39.4347825 Z M570.90625,39.4347825 C570.509284,39.4347825 570.1875,39.7559585 570.1875,40.1521737 C570.1875,40.5483649 570.509284,40.8695649 570.90625,40.8695649 L578.09375,40.8695649 C578.490716,40.8695649 578.8125,40.5483649 578.8125,40.1521737 C578.8125,39.7559585 578.490716,39.4347825 578.09375,39.4347825 L570.90625,39.4347825 Z M568.99707,42.7826082 C569.402541,42.7826082 569.71582,43.0952975 569.71582,43.4999994 C569.71582,43.9047013 569.402541,44.2173906 568.99707,44.2173906 C568.591599,44.2173906 568.27832,43.9047013 568.27832,43.4999994 C568.27832,43.0952975 568.591599,42.7826082 568.99707,42.7826082 Z M580.017904,42.7826082 C580.423374,42.7826082 580.736654,43.0952975 580.736654,43.4999994 C580.736654,43.9047013 580.423374,44.2173906 580.017904,44.2173906 C579.612433,44.2173906 579.299154,43.9047013 579.299154,43.4999994 C579.299154,43.0952975 579.612433,42.7826082 580.017904,42.7826082 Z M564.4375,47.5652164 L584.5625,47.5652164 L584.5625,57.3620807 C584.5625,58.0395133 584.035788,58.5652175 583.357096,58.5652175 L565.642904,58.5652175 C564.964188,58.5652175 564.4375,58.0395133 564.4375,57.3620807 L564.4375,47.5652164 Z" id="Shape-Copy-21"></path>
                </g>
            </g>
        </g>
    </g>
</svg>
