<svg id="mapa-turystyczna" xmlns="http://www.w3.org/2000/svg" width="3000" height="1253" viewBox="0 0 3000 1253">      
  <path id="r1" fill="#78765a" d="M353.562,312.835h188.5c-34.641,106.886-79.439,538.519-79.439,627.3H353.562v-627.3Z"/>
  <path id="r2" fill="#78765a" d="M975.078,940.143V501.514c-125.24,91.3-285.057,186.222-438.584,221.4-6.438,76.694-8.634,99.052-15.132,217.228H975.078Z"/>
  <path id="r3" fill="#ffa400" d="M536.494,722.915m78.23-501.723C746.16,261.7,899.025,302.2,1071.7,342.7,909.334,502.184,770.034,590.491,537.409,670.511,555.449,468,578.644,373.079,614.724,221.192Z"/>
  <path id="mapa" fill="#595743" d="M1582.68,621.311V443.6c0-86.941-48.77-129.045-116.49-129.045-46.06,0-78.02,18.045-102.94,57.961-23.3-39.916-52.56-57.414-96.99-57.414-37.38,0-60.68,11.483-83.44,41.557V322.212h-40.09v299.1h40.09V446.882c0-59.6,29.8-94.6,79.65-94.6,45.51,0,80.19,27.886,80.19,94.6V621.311h40.09V447.976c0-67.8,34.13-96.237,81.27-96.237,48.76,0,78.56,28.98,78.56,96.237V621.311h40.1Zm370.02,0v-299.1h-40.09v53.039c-29.26-41.557-65.56-60.148-117.03-60.148-88.86,0-156.04,67.8-156.04,157.479,0,89.128,67.73,155.838,158.75,155.838,50.39,0,82.9-16.951,114.32-59.6v52.492h40.09ZM1912.61,470.4c0,67.8-49.85,120.842-113.78,120.842-67.18,0-118.65-53.039-118.65-121.389,0-65.07,52.01-117.562,116.48-117.562C1861.68,352.286,1912.61,403.685,1912.61,470.4Zm420.97,2.187c0-89.129-67.73-157.479-156.04-157.479-50.39,0-91.57,20.779-116.49,58.508v-51.4h-40.09V726.3h40.09V569.912c26.01,38.276,66.1,58.508,115.41,58.508C2264.77,628.42,2333.58,560.07,2333.58,472.582Zm-40.64,0c0,67.256-50.38,118.655-116.48,118.655-67.73,0-118.12-51.946-118.12-120.842,0-66.163,52.01-118.109,117.57-118.109C2242.56,352.286,2292.94,403.685,2292.94,472.582Zm399.3,148.729v-299.1h-40.1v53.039c-29.26-41.557-65.56-60.148-117.03-60.148-88.85,0-156.04,67.8-156.04,157.479,0,89.128,67.73,155.838,158.75,155.838,50.39,0,82.9-16.951,114.32-59.6v52.492h40.1ZM2652.14,470.4c0,67.8-49.84,120.842-113.78,120.842-67.18,0-118.65-53.039-118.65-121.389,0-65.07,52.01-117.562,116.49-117.562C2601.21,352.286,2652.14,403.685,2652.14,470.4Z"/>
  <path id="turystyczna" fill="#595743" d="M1220.64,798.217V778.491h-35.88V721.962h-21.59v56.529h-34.42v19.726h34.42V939.538h21.59V798.217h35.88Zm162.49,141.321V778.491h-21.59v82.731c0,43.869-20.42,62.123-49.59,62.123-30.92,0-47.84-17.077-47.84-58V778.491h-21.59v86.853c0,56.234,27.13,78.021,67.68,78.021,24.8,0,40.55-8.832,51.34-28.853v25.026h21.59Zm103.56-143.382V774.663c-23.04,1.178-36.76,9.127-45.22,26.792V778.491h-21.58V939.538h21.58v-93.92C1441.47,815.587,1456.64,799.1,1486.69,796.156Zm165.12-17.665h-23.05l-53.97,128.366-50.47-128.366h-23.63l61.85,155.747-25.96,61.828h23.04Zm107.94,114.823c0-19.726-9.04-33.269-27.72-41.219-24.21-10.01-25.38-10.6-30.04-12.954-9.92-5-14.59-11.777-14.59-21.2a23.016,23.016,0,0,1,23.05-23.259c14,0,23.34,8.243,23.34,23.553h21.87c0-25.909-19.25-43.574-44.92-43.574-25.97,0-45.22,19.137-45.22,45.341,0,11.482,4.08,21.492,11.96,28.853,6.42,6.183,7,6.477,29.47,15.6,23.04,9.421,30.92,14.721,30.92,30.914s-11.38,27.97-26.84,27.97c-17.8,0-30.05-11.483-30.05-31.209h-21.29c0,31.209,20.71,51.229,51.34,51.229C1739.62,943.365,1759.75,922.756,1759.75,893.314Zm106.18-95.1V778.491h-35.88V721.962h-21.59v56.529h-34.42v19.726h34.42V939.538h21.59V798.217h35.88Zm157.24-19.726h-23.04l-53.97,128.366-50.47-128.366h-23.63l61.84,155.747-25.96,61.828h23.05Zm172.71,113.645h-24.51c-16.63,22.376-32.09,31.209-54.55,31.209a63.794,63.794,0,0,1-64.18-64.184c0-36.213,27.71-64.477,63.3-64.477,23.63,0,43.18,11.482,55.43,32.68h24.22c-12.84-32.386-43.47-52.7-79.35-52.7-47.85,0-85.48,37.1-85.48,83.91,0,47.99,37.92,84.792,86.93,84.792C2150.66,943.365,2176.62,928.939,2195.88,892.136Zm132.44,47.4V919.812h-92.77l87.23-122.773V778.491H2213.09v19.726h85.18l-88.1,121.6v19.726h118.15Zm162.49,0v-84.5c0-56.529-28.3-80.377-68.26-80.377-21.01,0-37.93,8.244-51.35,24.731v-20.9h-21.59V939.538h21.59v-88.62c0-39.452,19.84-56.234,48.72-56.234,29.46,0,49.3,16.487,49.3,60.356v84.5h21.59Zm199.25,0V778.491h-21.59v28.558c-15.75-22.375-35.3-32.386-63.01-32.386-47.85,0-84.02,36.508-84.02,84.793,0,47.99,36.46,83.909,85.47,83.909,27.14,0,44.64-9.127,61.56-32.091v28.264h21.59Zm-21.59-81.26c0,36.508-26.84,65.067-61.26,65.067-36.18,0-63.89-28.559-63.89-65.361,0-35.036,28-63.3,62.72-63.3C2641.05,794.684,2668.47,822.359,2668.47,858.278Z"/>
</svg>
