<svg version="1" xmlns="http://www.w3.org/2000/svg" width="346.667" height="346.667" viewBox="0 0 260.000000 260.000000"><path d="M119.7 10.7c-.2.2-2.8.5-5.8.8-3 .2-6.3.6-7.4.9-3.7.8-12 2.8-13 3.1-.5.1-1.4.4-2 .5-.9.3-2.3.8-10.5 4.3-1.4.6-2.7 1.1-3 1.2-3.9 1-22.5 12.7-28.5 17.9-1.6 1.4-3.4 2.6-3.9 2.6s-.7.3-.4.6c.3.3-1.6 2.5-4.2 5-8.2 7.7-25.1 33-23.2 34.8.3.3 0 .6-.7.6s-.9.4-.6 1c.3.5.1 1-.6 1s-1 .3-.7.6c.3.3-.4 3.2-1.7 6.5-1.3 3.2-2.2 5.9-2 5.9.3 0 0 1.1-.5 2.5-4.2 11-4.7 36.7-1.2 53.8.1.4.5 2.5.8 4.7.4 2.2.9 4 1.3 4s.8 1.1.9 2.4c.4 5.7 9.8 24.3 17.2 34.1 5.2 7 18 21.1 18 19.9 0-.3 1.2.7 2.8 2.1 7.4 7 32.8 21.4 36.5 20.6.4-.1 2 .5 3.6 1.4 1.6.8 3.1 1.1 3.5.8.3-.4.6-.1.6.6s.6 1.1 1.4.8c.8-.3 1.7-.3 2 .1.4.3 1.9.7 3.4.9 3.6.3 5.5.7 6.7 1.4 1.7.9 8.5 1.3 22 1.1 14.7-.1 19.5-.4 19.5-1.3 0-.3 1-.5 2.3-.4 1.2.1 2.7 0 3.2-.4.6-.3 1.7-.6 2.5-.7 2.7-.1 7.5-1.7 8.9-2.8.8-.6 1.6-1 1.8-.9.1.2.4.3.6.2.1 0 .9-.2 1.7-.4 3.9-.7 18.7-8 25.4-12.4 2.1-1.4 4.6-3.1 5.5-3.6 3.5-2.1 20.3-18.2 24.8-23.6 3.4-4.3 9.3-13.3 9.3-14.3 0-.5.6-1.7 1.3-2.5 1.7-1.9 7.3-15.3 6.9-16.3-.1-.5.2-.8.8-.8.6 0 .9-.3.9-.8-.1-.4 0-1 .1-1.5.1-.4.4-1.2.5-1.7.1-.6.3-1.1.5-1.3.3-.4 1.9-7.1 2.6-11.6.3-1.8.8-4.3 1-5.5.3-1.1.7-7.3.8-13.6.3-12.2-1.4-27-3.9-33.3-.8-2-1.3-3.7-1-3.7.2 0-.2-1.5-1-3.3-.7-1.7-1.4-3.7-1.5-4.2-.4-2.3-8.3-18.1-10.6-21.2-1.4-1.8-2.1-3.3-1.7-3.3.4 0 .4-.4-.2-.8-.5-.4-2.8-3-4.9-5.7-3.3-4.2-16.5-17.6-20.8-21.1-7.9-6.4-31.5-18.8-38-20-.5-.1-.9-.2-1-.4-.2-.1-1-.3-1.8-.5-.8-.1-4.4-1-7.9-1.9-3.5-1-6.6-1.5-6.9-1.2-.3.3-1.2 0-2-.7-1.3-1-1.4-.9-.7.3.8 1.3.7 1.3-.8.1-1.2-1-5.3-1.4-14.2-1.6-6.8-.1-12.6 0-12.8.2zm18.8 3.3c0 .1 2 .3 4.5.5 2.5.3 5.6.7 7 .9 1.4.3 4.1.8 6 1.1 1.9.3 5.2 1.2 7.3 2 2 .8 3.7 1.3 3.7 1.1 0-.7 17.2 7 22 9.8 2.5 1.5 5.3 2.9 6.3 3.3.9.3 1.7.9 1.7 1.4 0 .5 1.2 1.5 2.8 2.3 1.5.8 4.1 2.6 5.7 4.1 8.4 7.6 13.4 12.6 16.1 16 1.6 2.1 3.4 4.3 3.9 4.9 10.4 11.8 22.7 44.1 22 58 0 1.4.2 2.6.5 2.6s.5 3.8.5 8.5-.2 8.5-.5 8.5-.5 1.7-.5 3.7c0 2.1-.5 6-1.2 8.8-.6 2.7-1.4 6.1-1.6 7.5-.2 1.4-.7 3.2-1 4-.3.8-1.7 4.4-3 8-4.7 12.7-12.4 25.6-19.9 33.3-1.4 1.5-2.4 2.7-2.1 2.7.9 0-7.6 7.8-14.8 13.6-3.6 3-6.9 5.4-7.3 5.4-.4 0-1.6.9-2.8 2-1.2 1-2.5 1.7-3 1.4-.4-.3-.8-.2-.8.3 0 1.6-21.7 11.3-25.2 11.3-.8 0-1.8.3-2.2.7-.6.7-2.4 1.1-5.8 1.5-1 .1-1.8.5-1.8.8 0 .3-1.5.6-3.3.7-4.1.3-7 .8-8.2 1.4-1.2.5-23.4.2-28.5-.4-3.3-.4-9.2-1.4-12.9-2.2-.9-.2-5.4-1.5-10.1-3-30.8-9.8-56.2-32-70.2-61.1-2.3-5-4.4-9.7-4.6-10.5-.1-.8-.7-2.3-1.2-3.4-.9-2.1-2-6.8-2.3-9.8-.1-.9-.4-1.7-.7-1.7-.3 0-.7-1-.7-2.3-.1-1.2-.5-4.7-.9-7.7-1.8-12.6-.7-29.9 2.7-42 1.1-4.1 2.1-8.1 2.1-8.8.1-.6.5-1.2 1-1.2.4 0 .7-.3.6-.8-.2-.4.5-2.6 1.5-5 .9-2.3 1.8-4.5 1.9-5 .1-.4 1.4-2.9 3-5.5 1.5-2.6 2.8-5.2 2.8-5.8 0-.5.7-1.2 1.5-1.5.8-.4 1.5-1.1 1.5-1.8 0-.6 1.1-2.5 2.5-4.1 1.3-1.7 3.2-4.1 4.2-5.4 2.1-2.7 11.9-12.7 15.4-15.6C60.3 34.6 78.4 24 86 21.6c1.4-.5 3-1 3.5-1.2 4.4-1.7 19-5.2 19.7-4.8.4.3.8.2.8-.3 0-.4 1.9-.8 4.2-.7 2.4 0 5.3-.2 6.6-.5 1.8-.5 17.7-.6 17.7-.1z"/><path d="M71.9 62.1c-.5.3.2 1.6 1.6 2.9 1.3 1.2 2.2 2.6 2 3.1-.3.4-.1 1 .5 1.4.6.4 1 20.3 1 56.5 0 58.1-.1 59.4-4.2 63.1-1 .9-1.8 1.8-1.8 2.1 0 .2 11.3.4 25 .4h25l-2-2.1c-1.1-1.2-2-2.7-2-3.3 0-.7-.4-1.2-.8-1.2-.5 0-.9-.6-1.1-1.3-.5-3.7-.6-56.7 0-56.7s23.1 33.4 23.8 35.4c.2.6 1.1 2 2.1 3.1 3.3 3.8 8 13.6 8.5 17.7.3 2.7 0 4.9-.9 6.3l-1.4 2.2h29.4c27.6-.1 29.3-.2 27.6-1.8-.9-.9-1.9-1.5-2.1-1.3-.5.5-4.3-4.3-10.2-13.1-2.9-4.4-5.7-8.2-6.1-8.3-.5-.2-.6-.8-.2-1.3.3-.5 0-.9-.6-.9s-1.5-1-2-2.3c-.8-1.8-7.4-11.8-10.7-16.2-.5-.6-3.7-5.3-7.2-10.5-16.9-25.2-24.4-36-25-36-.3 0-6 5.2-12.6 11.4-6.6 6.3-12.2 11.2-12.5 11.1-.3-.2-.5-11.8-.5-25.7.1-22.3.4-25.8 2-29.1 1-2.2 2.8-4.3 3.9-4.7 1.4-.6 1.6-.9.6-1-4.9-.5-48.4-.4-49.1.1zM147.4 62c-1.2.5-1 .9 1 1.9 5.5 3 7.1 13.4 3.3 21-1.5 2.9-1.4 2.9 3.7-1.1 2.8-2.2 5.3-4.4 5.4-4.9.2-.5 1-.9 1.7-.9.8 0 1.9-.8 2.4-1.8.6-.9 1.1-1.3 1.1-.9s1-.1 2.2-1.3c1.2-1.1 2.8-2 3.5-2 .7 0 1.3-.4 1.3-.8 0-.8 11.4-6.4 15.8-7.7 1.2-.3 2.2-.9 2.2-1.3 0-.8-41.4-1-43.6-.2z"/></svg>