<svg
 xmlns="http://www.w3.org/2000/svg"
 xmlns:xlink="http://www.w3.org/1999/xlink"
 width="55px" height="56px">
<path fill-rule="evenodd"
 d="M47.601,44.848 C47.601,45.741 46.875,46.468 45.982,46.468 C45.089,46.468 44.363,45.741 44.363,44.848 C44.363,43.955 45.089,43.228 45.982,43.228 C46.875,43.228 47.601,43.955 47.601,44.848 ZM52.603,51.954 C51.768,53.870 49.879,55.108 47.790,55.108 L40.963,55.108 C38.823,55.103 36.907,53.809 36.084,51.813 C35.755,51.015 35.477,50.132 35.233,49.113 C35.133,48.692 35.202,48.257 35.428,47.889 C35.654,47.520 36.010,47.261 36.431,47.160 C36.556,47.131 36.683,47.116 36.810,47.116 C37.561,47.116 38.207,47.627 38.382,48.359 C38.587,49.213 38.814,49.939 39.077,50.577 C39.395,51.347 40.154,51.866 40.967,51.868 L47.781,51.868 C48.589,51.868 49.315,51.394 49.635,50.660 C50.236,49.279 50.952,47.149 50.947,44.838 C50.941,42.543 50.224,40.457 49.623,39.112 C49.300,38.389 48.586,37.938 47.761,37.936 L41.028,37.936 C40.155,37.936 39.435,38.406 39.145,39.164 C38.819,40.010 38.594,40.717 38.413,41.453 C38.236,42.180 37.589,42.688 36.841,42.688 L21.773,42.688 L19.644,44.883 L21.837,47.116 L28.173,47.116 C29.066,47.116 29.792,47.843 29.792,48.736 C29.792,49.629 29.066,50.356 28.173,50.356 L21.158,50.356 C20.726,50.356 20.306,50.179 20.003,49.871 L16.226,46.025 C15.614,45.403 15.611,44.387 16.219,43.761 L19.927,39.939 C20.230,39.627 20.654,39.448 21.089,39.448 L35.610,39.448 L35.733,39.079 C35.885,38.626 36.028,38.247 36.122,38.001 C36.894,35.993 38.815,34.696 41.018,34.696 L47.764,34.696 C49.851,34.701 51.742,35.915 52.579,37.790 C53.308,39.421 54.178,41.967 54.185,44.830 C54.192,47.703 53.328,50.290 52.603,51.954 ZM35.561,26.364 L34.734,26.985 L35.716,27.309 C36.091,27.433 36.437,27.554 36.774,27.681 C37.609,27.995 38.034,28.931 37.720,29.767 C37.484,30.396 36.875,30.818 36.204,30.818 C36.010,30.818 35.819,30.783 35.635,30.714 C33.087,29.756 30.404,29.239 27.661,29.177 L27.645,29.176 L27.629,29.177 C27.425,29.184 27.255,29.188 27.094,29.188 C26.934,29.188 26.766,29.184 26.564,29.177 L26.548,29.176 L26.532,29.177 C21.100,29.303 15.786,31.302 11.570,34.806 C7.346,38.314 4.410,43.180 3.302,48.504 C3.129,49.337 3.336,50.191 3.869,50.847 C4.179,51.229 4.870,51.868 6.015,51.868 L13.657,51.868 C14.550,51.868 15.276,52.595 15.276,53.488 C15.276,54.381 14.550,55.108 13.657,55.108 L6.015,55.108 C4.199,55.108 2.502,54.300 1.357,52.892 C0.206,51.475 -0.240,49.636 0.132,47.844 C1.403,41.738 4.769,36.180 9.610,32.195 C12.240,30.031 15.225,28.389 18.482,27.316 L19.466,26.992 L18.637,26.371 C16.912,25.079 15.483,23.385 14.503,21.472 C13.476,19.468 12.955,17.304 12.955,15.040 C12.955,7.239 19.298,0.892 27.094,0.892 C34.890,0.892 41.233,7.239 41.233,15.040 C41.233,17.302 40.713,19.464 39.688,21.467 C38.710,23.378 37.283,25.071 35.561,26.364 ZM27.094,4.132 C21.083,4.132 16.193,9.025 16.193,15.040 C16.193,20.868 20.748,25.654 26.562,25.935 L26.580,25.936 L26.598,25.935 C26.763,25.932 26.929,25.930 27.094,25.930 C27.259,25.930 27.424,25.933 27.589,25.935 L27.607,25.936 L27.625,25.935 C33.440,25.655 37.995,20.869 37.995,15.040 C37.995,9.025 33.105,4.132 27.094,4.132 Z"/>
</svg>
