<svg
 xmlns="http://www.w3.org/2000/svg"
 xmlns:xlink="http://www.w3.org/1999/xlink"
 width="53px" height="53px">
<path fill-rule="evenodd"
 d="M46.597,44.467 L52.361,50.232 C52.646,50.516 52.802,50.894 52.802,51.297 C52.802,51.699 52.646,52.077 52.361,52.361 C52.077,52.646 51.699,52.802 51.297,52.802 C50.894,52.802 50.516,52.646 50.232,52.362 L44.467,46.597 L38.702,52.362 C38.418,52.646 38.040,52.802 37.637,52.802 C37.235,52.802 36.857,52.646 36.573,52.362 C36.288,52.077 36.132,51.699 36.132,51.297 C36.132,50.895 36.288,50.516 36.573,50.232 L42.338,44.467 L36.573,38.702 C36.288,38.418 36.132,38.040 36.132,37.637 C36.132,37.235 36.288,36.857 36.573,36.573 C36.857,36.288 37.235,36.132 37.638,36.132 C38.040,36.132 38.418,36.288 38.702,36.573 L44.467,42.338 L50.232,36.573 C50.516,36.288 50.895,36.132 51.297,36.132 C51.699,36.132 52.077,36.288 52.361,36.573 C52.646,36.857 52.802,37.235 52.802,37.637 C52.802,38.040 52.646,38.418 52.361,38.702 L46.597,44.467 ZM9.864,35.956 C9.864,35.126 10.540,34.451 11.370,34.451 C12.200,34.451 12.876,35.126 12.876,35.956 C12.876,36.787 12.200,37.462 11.370,37.462 C10.540,37.462 9.864,36.787 9.864,35.956 ZM17.744,35.956 C17.744,35.126 18.420,34.451 19.250,34.451 C20.080,34.451 20.756,35.126 20.756,35.956 C20.756,36.787 20.080,37.462 19.250,37.462 C18.420,37.462 17.744,36.787 17.744,35.956 ZM25.625,35.956 C25.625,35.126 26.300,34.451 27.130,34.451 C27.961,34.451 28.636,35.126 28.636,35.956 C28.636,36.787 27.961,37.462 27.130,37.462 C26.300,37.462 25.625,36.787 25.625,35.956 ZM44.572,33.890 C43.742,33.890 43.066,33.214 43.066,32.384 L43.066,27.761 C43.066,25.115 40.914,22.962 38.268,22.962 L8.008,22.962 C5.362,22.962 3.209,25.115 3.209,27.761 L3.209,44.992 C3.209,47.638 5.362,49.791 8.008,49.791 L29.232,49.791 C30.062,49.791 30.738,50.466 30.738,51.297 C30.738,52.127 30.062,52.802 29.232,52.802 L8.008,52.802 C3.701,52.802 0.198,49.299 0.198,44.992 L0.198,27.761 C0.198,23.454 3.701,19.951 8.008,19.951 L11.121,19.951 L11.121,11.944 C11.121,5.467 16.510,0.198 23.134,0.198 C29.758,0.198 35.147,5.467 35.147,11.944 L35.147,19.951 L38.268,19.951 C42.574,19.951 46.078,23.454 46.078,27.761 L46.078,32.384 C46.078,33.214 45.402,33.890 44.572,33.890 ZM32.135,11.944 C32.135,7.128 28.097,3.209 23.134,3.209 C18.170,3.209 14.132,7.128 14.132,11.944 L14.132,19.951 L32.135,19.951 L32.135,11.944 Z"/>
</svg>
