<svg width="31px" height="31px" viewBox="0 0 31 31" version="1.1" xmlns="http://www.w3.org/2000/svg" xmlns:xlink="http://www.w3.org/1999/xlink">
    <g id="Page-1" stroke="none" stroke-width="1" fill="none" fill-rule="evenodd">
        <g id="5" transform="translate(-324.000000, -394.000000)" fill="#5E80FF" fill-rule="nonzero">
            <g id="Group-7" transform="translate(318.000000, 388.000000)">
                <path d="M21.2156077,6.21320344 C17.2099411,6.21320344 13.4423491,7.7722078 10.6074973,10.605099 C7.77394223,13.4379902 6.21320344,17.2058249 6.21320344,21.2131616 C6.21050554,25.2204726 7.77013325,28.9883073 10.604985,31.8211445 C13.4385941,34.654037 17.2060781,36.2132034 21.2130143,36.2132034 C25.222598,36.2132034 28.9926591,34.6527137 31.8262142,31.8185518 C37.6768028,25.9706852 37.6742635,16.4542889 31.8262142,10.605099 C28.9926591,7.77347715 25.2239217,6.21320344 21.2156077,6.21320344 Z M21.2156077,8.76070704 C24.5423038,8.76070704 27.6701065,10.0561458 30.0246489,12.4062521 C34.8802299,17.2619194 34.8802299,25.1618934 30.0246489,30.0175067 C27.6701065,32.3701517 24.5422228,33.6655378 21.2130143,33.6655378 C17.8863993,33.6655378 14.7584994,32.371367 12.4064963,30.0199914 C10.0557899,27.6686158 8.76138588,24.5402632 8.76138588,21.2131616 C8.76138588,17.8860342 10.0571406,14.758897 12.4090626,12.4062521 C14.7610927,10.0561458 17.8890467,8.76070704 21.2156077,8.76070704 Z M17.6697468,16.3941366 C17.3438766,16.3941366 17.0180605,16.5186477 16.7689912,16.7677103 C16.2708525,17.2657544 16.2708525,18.0708191 16.7689912,18.5688633 L19.415231,21.2144849 L16.7689912,23.8600809 C16.2708525,24.3581251 16.2708525,25.1631088 16.7689912,25.6611529 C17.0174121,25.9094863 17.3436065,26.0343957 17.6697468,26.0343957 C17.9959141,26.0343957 18.3220274,25.9094863 18.5705024,25.6611529 L21.2167423,23.0155313 L23.8629821,25.6611529 C24.1114571,25.9094863 24.4376515,26.0343957 24.7638458,26.0343957 C25.0899861,26.0343957 25.4161805,25.9094863 25.6646015,25.6611529 C26.1627401,25.1631088 26.1627401,24.3581251 25.6646015,23.8600809 L23.0183616,21.2144849 L25.6646015,18.5688633 C26.1627401,18.0708191 26.1627401,17.2657544 25.6646015,16.7677103 C25.1664358,16.2696121 24.3611478,16.2696121 23.8629821,16.7677103 L21.2167423,19.4133049 L18.5705024,16.7677103 C18.3214061,16.5186477 17.995563,16.3941366 17.6697468,16.3941366 L17.6697468,16.3941366 Z" id="Shape" transform="translate(21.213203, 21.213203) rotate(45.000000) translate(-21.213203, -21.213203) "></path>
            </g>
        </g>
    </g>
</svg>
