<svg width="34px" height="27px" viewBox="0 0 34 27" version="1.1" xmlns="http://www.w3.org/2000/svg" xmlns:xlink="http://www.w3.org/1999/xlink">
    <g id="Page-1" stroke="none" stroke-width="1" fill="none" fill-rule="evenodd">
        <g id="5" transform="translate(-323.000000, -140.000000)" fill="#5E80FF" fill-rule="nonzero">
            <g id="Group-6" transform="translate(323.000000, 137.000000)">
                <g id="Group-2" transform="translate(0.000000, 4.000000)">
                    <g id="Group">
                        <g id="Shape">
                            <path d="M2.14381564,2.13833273 C2.7892655,1.49453364 3.83574654,1.49453364 4.4811964,2.13833273 C5.12664626,2.78213183 5.12664626,3.82593644 4.4811964,4.46973554 C0.700704288,8.24055887 0.700704288,14.3542714 4.4811964,18.1250947 C8.26168851,21.8959181 14.3910772,21.8959181 18.1715693,18.1250947 C21.9520615,14.3542714 21.9520615,8.24055887 18.1715693,4.46973554 C17.5261195,3.82593644 17.5261195,2.78213183 18.1715693,2.13833273 C18.8170192,1.49453364 19.8635002,1.49453364 20.5089501,2.13833273 C25.5803419,7.19675425 25.5803419,15.398076 20.5089501,20.4564975 C15.4375583,25.5149191 7.21520747,25.5149191 2.14381564,20.4564975 C-2.9275762,15.398076 -2.9275762,7.19675425 2.14381564,2.13833273 Z" transform="translate(11.326383, 12.952899) rotate(90.000000) translate(-11.326383, -12.952899) "></path>
                        </g>
                    </g>
                    <path d="M27.1358205,7.56670865 L31.8702939,12.3879522 C33.2019502,13.7200086 31.2044659,15.7185641 29.8723387,14.3865078 L28.2516162,12.7591322 C27.8826476,12.388649 27.5834102,12.5114634 27.5834102,13.033606 L27.5834102,19.5128775 C27.5834102,20.2871244 26.9509461,20.9224642 26.1707621,20.9224642 C25.3921657,20.9224642 24.7581141,20.2913707 24.7581141,19.5128775 L24.7581141,13.033606 C24.7581141,12.5142789 24.4588865,12.3885773 24.0897705,12.7591322 L22.4687146,14.3865078 C21.1370584,15.7185641 19.1391032,13.7200086 20.4707594,12.3879522 L25.1567092,7.57336451 C25.7045701,7.01046389 26.5886633,7.00952351 27.1358205,7.56670865 Z" id="Path" transform="translate(26.170556, 14.036232) scale(-1, 1) rotate(90.000000) translate(-26.170556, -14.036232) "></path>
                </g>
            </g>
        </g>
    </g>
</svg>
