<svg width="14px" height="13px" viewBox="0 0 14 13" version="1.1" xmlns="http://www.w3.org/2000/svg" xmlns:xlink="http://www.w3.org/1999/xlink">
    <g id="Page-1" stroke="none" stroke-width="1" fill-rule="evenodd">
        <g id="personal-details" transform="translate(-634.000000, -576.000000)" fill-rule="nonzero">
            <path d="M641.001042,575.5 C639.265253,575.5 637.63263,576.227535 636.404194,577.549551 C635.17632,578.871567 634.500002,580.62989 634.500002,582.49998 C634.498831,584.370059 635.17467,586.128382 636.403105,587.450372 C637.631003,588.772389 639.263579,589.5 640.999918,589.5 C642.737404,589.5 644.371097,588.771771 645.598971,587.449163 C648.134226,584.720158 648.133126,580.279173 645.598971,577.549551 C644.371097,576.228128 642.737978,575.5 641.001042,575.5 Z M641.001042,576.688835 C642.44261,576.688835 643.797991,577.293373 644.818293,578.390089 C646.922378,580.656067 646.922378,584.342722 644.818293,586.608675 C643.797991,587.706576 642.442575,588.311089 640.999918,588.311089 C639.558385,588.311089 638.202962,587.707143 637.18376,586.609834 C636.165121,585.512526 635.604212,584.052628 635.604212,582.49998 C635.604212,580.947321 636.165706,579.48799 637.184872,578.390089 C638.204085,577.293373 639.559532,576.688835 641.001042,576.688835 L641.001042,576.688835 Z M639.074175,580.425437 C638.858315,580.657857 638.858315,581.033554 639.074175,581.265975 L640.220879,582.500598 L639.074175,583.735209 C638.858315,583.96763 638.858315,584.343289 639.074175,584.57571 C639.181824,584.691599 639.323175,584.74989 639.464502,584.74989 C639.605841,584.74989 639.747157,584.691599 639.85483,584.57571 L641.001533,583.341086 L642.148237,584.57571 C642.25591,584.691599 642.397261,584.74989 642.538612,584.74989 C642.679939,584.74989 642.82129,584.691599 642.928939,584.57571 C643.144799,584.343289 643.144799,583.96763 642.928939,583.735209 L641.782235,582.500598 L642.928939,581.265975 C643.144799,581.033554 643.144799,580.657857 642.928939,580.425437 C642.713067,580.192991 642.364109,580.192991 642.148237,580.425437 L641.001533,581.660047 L639.85483,580.425437 C639.746888,580.309207 639.605689,580.251105 639.464502,580.251105 C639.323292,580.251105 639.182105,580.309207 639.074175,580.425437 Z" id="Shape-Copy-14" transform="translate(641.000000, 582.500000) rotate(90.000000) translate(-641.000000, -582.500000) "></path>
        </g>
    </g>
</svg>
