<svg viewBox="0 0 512 512" xmlns="http://www.w3.org/2000/svg"><path d="m274.183594 286.289062c-1.578125 3.183594-3.695313 6.167969-6.347656 8.816407-13.695313 13.699219-36.261719 13.121093-49.207032-1.734375-14.855468-12.945313-15.433594-35.511719-1.738281-49.210938 2.652344-2.648437 5.636719-4.765625 8.820313-6.347656 7.035156-3.496094 13.652343-7.765625 19.535156-12.929688l-61-61 61-61c5.167968 5.886719 9.4375 12.503907 12.933594 19.542969 1.578124 3.179688 3.695312 6.164063 6.347656 8.816407 13.699218 13.699218 36.269531 13.117187 49.214844-1.746094 14.863281-12.945313 15.445312-35.519532 1.746093-49.21875-2.648437-2.648438-5.632812-4.765625-8.816406-6.347656-7.035156-3.496094-13.652344-7.765626-19.539063-12.929688l61-61 61 61c5.164063-5.886719 9.433594-12.503906 12.929688-19.539062 1.582031-3.183594 3.695312-6.164063 6.347656-8.816407 13.699219-13.699219 36.265625-13.117187 49.210938 1.734375 14.855468 12.945313 15.433594 35.511719 1.734375 49.210938-2.652344 2.648437-5.632813 4.765625-8.816407 6.347656-7.035156 3.496094-13.652343 7.765625-19.539062 12.929688l61 61-61 61c-5.164062-5.886719-9.433594-12.503907-12.929688-19.539063-1.582031-3.183594-3.695312-6.164063-6.347656-8.816406-13.699218-13.699219-36.273437-13.117188-49.21875 1.746093-14.863281 12.945313-15.445312 35.515626-1.746094 49.214844 2.652344 2.652344 5.636719 4.769532 8.816407 6.347656 7.039062 3.496094 13.65625 7.769532 19.539062 12.933594l-61 61-61-61c-5.164062 5.882813-9.433593 12.5-12.929687 19.535156zm0 0"/><path d="m61 287.113281c-5.886719-5.164062-12.503906-9.433593-19.539062-12.929687-3.183594-1.582032-6.164063-3.695313-8.816407-6.347656-13.699219-13.695313-13.117187-36.261719 1.734375-49.210938 12.945313-14.851562 35.511719-15.429688 49.210938-1.734375 2.648437 2.652344 4.765625 5.636719 6.347656 8.816406 3.496094 7.039063 7.765625 13.65625 12.929688 19.539063l61-61 36.230468 36.230468c-1.230468 1.054688-2.425781 2.160157-3.578125 3.3125-12.191406 12.195313-18.847656 29.074219-18.257812 46.3125.566406 16.574219 7.816406 32.378907 19.96875 43.667969 11.289062 12.148438 27.09375 19.398438 43.667969 19.96875 17.238281.589844 34.117187-6.066406 46.3125-18.257812 1.152343-1.15625 2.257812-2.347657 3.308593-3.582031l36.234375 36.234374-61 61c5.882813 5.164063 12.5 9.433594 19.535156 12.929688 3.183594 1.578125 6.167969 3.695312 8.820313 6.347656 13.695313 13.695313 13.117187 36.261719-1.738281 49.207032-12.945313 14.855468-35.511719 15.433593-49.207032 1.738281-2.652343-2.652344-4.769531-5.636719-6.347656-8.820313-3.496094-7.035156-7.765625-13.652344-12.929687-19.539062l-61 61-61-61c5.882812-5.164063 12.5-9.433594 19.539062-12.929688 3.179688-1.578125 6.164063-3.695312 8.816407-6.347656 13.699218-13.699219 13.117187-36.269531-1.746094-49.214844-12.945313-14.863281-35.519532-15.445312-49.21875-1.746094-2.648438 2.648438-4.765625 5.632813-6.347656 8.816407-3.496094 7.035156-7.765626 13.652343-12.929688 19.539062l-61-61zm0 0"/></svg>