<svg width="17px" height="17px" viewBox="0 0 17 17" version="1.1" xmlns="http://www.w3.org/2000/svg" xmlns:xlink="http://www.w3.org/1999/xlink">
  <g id="Page-1" stroke="none" stroke-width="1" fill="none" fill-rule="evenodd">
    <g id="non-expand-option2" transform="translate(-336.000000, -300.000000)">
      <path d="M342.44126,311.092629 C341.95434,311.092629 341.525789,310.989243 341.155597,310.782469 C340.785404,310.575694 340.500259,310.282212 340.300155,309.902014 C340.100051,309.521816 340,309.078258 340,308.571327 C340,308.064396 340.105053,307.615836 340.315163,307.225633 C340.525272,306.835429 340.820422,306.53361 341.20062,306.320165 C341.580818,306.106721 342.017706,306 342.511296,306 C342.771432,306 343.033231,306.036685 343.296702,306.110057 C343.560172,306.183428 343.791956,306.283479 343.992061,306.410212 C344.205505,306.550285 344.312226,306.727041 344.312226,306.940485 C344.312226,307.087229 344.277208,307.205622 344.207172,307.295669 C344.137135,307.385716 344.045422,307.430739 343.93203,307.430739 C343.858658,307.430739 343.781953,307.414063 343.701911,307.380713 C343.621869,307.347362 343.541829,307.307342 343.461787,307.260651 C343.315044,307.173939 343.174973,307.105571 343.04157,307.055545 C342.908167,307.005519 342.754756,306.980506 342.581333,306.980506 C342.167784,306.980506 341.849289,307.115575 341.625839,307.385715 C341.402389,307.655856 341.290666,308.044386 341.290666,308.551317 C341.290666,309.051578 341.402389,309.436773 341.625839,309.706914 C341.849289,309.977054 342.167784,310.112123 342.581333,310.112123 C342.748086,310.112123 342.896495,310.08711 343.026562,310.037084 C343.15663,309.987058 343.301704,309.91869 343.461787,309.831978 C343.561839,309.771947 343.64855,309.726924 343.721921,309.696908 C343.795293,309.666893 343.868663,309.651885 343.942035,309.651885 C344.048757,309.651885 344.138803,309.698575 344.212174,309.791957 C344.285546,309.885339 344.322231,310.002065 344.322231,310.142138 C344.322231,310.255531 344.297219,310.353914 344.247192,310.437291 C344.197166,310.520667 344.115458,310.595705 344.002066,310.662407 C343.795292,310.79581 343.55517,310.900863 343.281694,310.97757 C343.008218,311.054276 342.728076,311.092629 342.44126,311.092629 Z M348.669739,306.380196 C348.7231,306.260134 348.794803,306.170088 348.88485,306.110057 C348.974897,306.050026 349.07328,306.02001 349.180002,306.02001 C349.333415,306.02001 349.471819,306.071703 349.595216,306.17509 C349.718614,306.278478 349.780312,306.406876 349.780312,306.560289 C349.780312,306.640331 349.760302,306.720371 349.720281,306.800413 L347.869326,310.672412 C347.809294,310.799145 347.724251,310.89586 347.614194,310.962562 C347.504136,311.029263 347.382408,311.062613 347.249005,311.062613 C347.122273,311.062613 347.000544,311.029263 346.883817,310.962562 C346.767089,310.89586 346.678711,310.799145 346.61868,310.672412 L344.757719,306.800413 C344.724369,306.733712 344.707693,306.657006 344.707693,306.570294 C344.707693,306.416881 344.772726,306.286815 344.902794,306.180093 C345.032862,306.073371 345.18127,306.02001 345.348024,306.02001 C345.588149,306.02001 345.764905,306.136736 345.878298,306.370191 L347.279021,309.461787 L348.669739,306.380196 Z" id="cv" fill="#BEC0CF"></path>
      <circle id="Oval-Copy" stroke="#BEC0CF" cx="344.5" cy="308.5" r="7.5"></circle>
    </g>
  </g>
</svg>
