<svg xmlns="http://www.w3.org/2000/svg" width="14.062" height="14.062" viewBox="0 0 14.062 14.062">
  <defs>
    <style>
      .cls-1 {
        fill-rule: evenodd;
      }
    </style>
  </defs>
  <path class="cls-1" d="M771.5,210.545a6.92,6.92,0,0,1-3.536-.944,7.042,7.042,0,0,1-2.565-2.565,7.095,7.095,0,0,1,0-7.072,7.042,7.042,0,0,1,2.565-2.565,7.095,7.095,0,0,1,7.072,0,7.042,7.042,0,0,1,2.565,2.565,7.095,7.095,0,0,1,0,7.072,7.042,7.042,0,0,1-2.565,2.565A6.918,6.918,0,0,1,771.5,210.545Zm0-12.374a5.241,5.241,0,0,0-2.675.715,5.338,5.338,0,0,0-1.938,1.939,5.355,5.355,0,0,0,0,5.35,5.338,5.338,0,0,0,1.938,1.939,5.361,5.361,0,0,0,5.35,0,5.349,5.349,0,0,0,1.939-1.939,5.361,5.361,0,0,0,0-5.35,5.349,5.349,0,0,0-1.939-1.939A5.241,5.241,0,0,0,771.5,198.171Zm0,8.753a0.134,0.134,0,0,1-.085-0.035l-3.007-3.008a0.089,0.089,0,0,1-.026-0.115v0a0.086,0.086,0,0,1,.1-0.064h2.009V200.18a0.094,0.094,0,0,1,.1-0.1h1.811a0.094,0.094,0,0,1,.1.1V203.7h2.009a0.094,0.094,0,0,1,.1.1,0.166,0.166,0,0,1-.043.093l-2.994,2.994A0.132,0.132,0,0,1,771.5,206.924Z" transform="translate(-764.469 -196.469)"/>
</svg>
