<svg width="15px" height="21px" viewBox="0 0 15 21" version="1.1" xmlns="http://www.w3.org/2000/svg" xmlns:xlink="http://www.w3.org/1999/xlink">
    <g id="Page-1" stroke="none" stroke-width="1" fill-rule="evenodd">
        <g id="personal-details" transform="translate(-653.000000, -143.000000)" fill-rule="nonzero">
            <g id="cv" transform="translate(653.000000, 140.000000)">
                <path d="M1.60714286,3 C0.726053304,3 0,3.79059167 0,4.75 L0,22.25 C0,23.2094083 0.726053304,24 1.60714286,24 L10.9821429,24 C11.1237881,23.9987639 11.2592198,23.9364988 11.358817,23.8268229 L14.8409598,20.0351563 C14.9416826,19.926706 14.9988648,19.779236 15,19.625 L15,4.75 C15,3.79059167 14.2739467,3 13.3928571,3 L1.60714286,3 Z M1.60714286,4.16666667 L13.3928571,4.16666667 C13.6989372,4.16666667 13.9285714,4.4167125 13.9285714,4.75 L13.9285714,18.75 L11.7857143,18.75 C10.9046006,18.75 10.1785714,19.5405917 10.1785714,20.5 L10.1785714,22.8333333 L1.60714286,22.8333333 C1.30106277,22.8333333 1.07142857,22.5832583 1.07142857,22.25 L1.07142857,4.75 C1.07142857,4.4167125 1.30106277,4.16666667 1.60714286,4.16666667 Z M7.5,5.91666667 C5.13941089,5.91666667 3.21428571,8.01291583 3.21428571,10.5833333 C3.21428571,13.1537479 5.13941089,15.25 7.5,15.25 C9.86058937,15.25 11.7857143,13.1537479 11.7857143,10.5833333 C11.7857143,8.01291583 9.86058937,5.91666667 7.5,5.91666667 Z M7.5,7.08333333 C9.28154652,7.08333333 10.7142857,8.64342917 10.7142857,10.5833333 C10.7142857,11.6255499 10.3020067,12.5591277 9.64285714,13.1992188 C9.62470259,12.411059 9.03535795,11.75 8.30357143,11.75 L6.69642857,11.75 C5.96464205,11.75 5.37529741,12.411059 5.35714286,13.1992188 C4.6979933,12.5591277 4.28571429,11.6255499 4.28571429,10.5833333 C4.28571429,8.64342917 5.71845375,7.08333333 7.5,7.08333333 Z M7.5,7.66666667 C6.61874491,7.66666667 5.89285714,8.4570775 5.89285714,9.41666667 C5.89285714,10.3762558 6.61874491,11.1666667 7.5,11.1666667 C8.38125509,11.1666667 9.10714286,10.3762558 9.10714286,9.41666667 C9.10714286,8.4570775 8.38125509,7.66666667 7.5,7.66666667 Z M7.5,8.83333333 C7.80221196,8.83333333 8.03571429,9.08759083 8.03571429,9.41666667 C8.03571429,9.7457425 7.80221196,10 7.5,10 C7.19778804,10 6.96428571,9.7457425 6.96428571,9.41666667 C6.96428571,9.08759083 7.19778804,8.83333333 7.5,8.83333333 Z M6.69642857,12.9166667 L8.30357143,12.9166667 C8.45057223,12.9166667 8.57142857,13.0348938 8.57142857,13.2356771 L8.57142857,13.8828125 C8.23568437,14.0115804 7.87728643,14.0833333 7.5,14.0833333 C7.12271357,14.0833333 6.76431536,14.0115804 6.42857143,13.8828125 L6.42857143,13.2356771 C6.42857143,13.0348938 6.54942777,12.9166667 6.69642857,12.9166667 Z M3.43191964,16.4166667 C3.24050005,16.4263953 3.06839218,16.5465978 2.98044252,16.7319846 C2.89249286,16.9173714 2.90206678,17.1397699 3.00555703,17.3153853 C3.10904728,17.4910007 3.29072685,17.5931453 3.48214286,17.5833333 L11.5178571,17.5833333 C11.711055,17.5863085 11.8907579,17.4757811 11.9881541,17.2940742 C12.0855504,17.1123673 12.0855504,16.8876327 11.9881541,16.7059258 C11.8907579,16.5242189 11.711055,16.4136915 11.5178571,16.4166667 L3.48214286,16.4166667 C3.46541099,16.4158118 3.44865151,16.4158118 3.43191964,16.4166667 Z M3.43191964,18.75 C3.24050005,18.7597286 3.06839218,18.8799311 2.98044252,19.0653179 C2.89249286,19.2507047 2.90206678,19.4731032 3.00555703,19.6487186 C3.10904728,19.824334 3.29072685,19.9264786 3.48214286,19.9166667 L8.83928571,19.9166667 C9.03248353,19.9196418 9.21218645,19.8091144 9.30958271,19.6274075 C9.40697897,19.4457006 9.40697897,19.2209661 9.30958271,19.0392592 C9.21218645,18.8575523 9.03248353,18.7470248 8.83928571,18.75 L3.48214286,18.75 C3.46541099,18.7491451 3.44865151,18.7491451 3.43191964,18.75 Z M11.7857143,19.9166667 L13.4430804,19.9166667 L11.25,22.3046875 L11.25,20.5 C11.25,20.1666833 11.4796583,19.9166667 11.7857143,19.9166667 Z" id="Shape-Copy-16"></path>
            </g>
        </g>
    </g>
</svg>
