<svg width="16px" height="16px" viewBox="0 0 16 16" version="1.1" xmlns="http://www.w3.org/2000/svg" xmlns:xlink="http://www.w3.org/1999/xlink">
    <g id="Symbols" stroke="none" stroke-width="1" fill="none" fill-rule="evenodd">
        <g id="Button/Next/CompletePart" transform="translate(-16.000000, -16.000000)" fill="#FFFFFF">
            <g id="Icons/Finish" transform="translate(16.000000, 16.000000)">
                <g id="Shape">
                    <path d="M0,0 L0,16 L2.13333333,16 L2.13333333,12 L16,12 L16,0 L0,0 Z M4.26666667,10 L2.13333333,10 L2.13333333,8 L4.26666667,8 L4.26666667,10 Z M4.26666667,4 L2.13333333,4 L2.13333333,2 L4.26666667,2 L4.26666667,4 Z M7.46666667,7 L5.33333333,7 L5.33333333,5 L7.46666667,5 L7.46666667,7 Z M10.6666667,10 L8.53333333,10 L8.53333333,8 L10.6666667,8 L10.6666667,10 Z M10.6666667,4 L8.53333333,4 L8.53333333,2 L10.6666667,2 L10.6666667,4 Z M13.8666667,7 L11.7333333,7 L11.7333333,5 L13.8666667,5 L13.8666667,7 Z" fill-rule="nonzero"></path>
                </g>
            </g>
        </g>
    </g>
</svg>
