<svg width="12px" height="12px" viewBox="0 0 12 12" version="1.1" xmlns="http://www.w3.org/2000/svg" xmlns:xlink="http://www.w3.org/1999/xlink">
    <g id="Symbols" stroke="none" stroke-width="1" fill="none" fill-rule="evenodd">
        <g id="Icons/Close" fill="#252C42" fill-rule="nonzero">
            <path d="M11.6490808,0.350919152 C11.1810473,-0.116973051 10.4223649,-0.116973051 9.9543314,0.350919152 L6.00750684,4.29774371 L2.06068228,0.350919152 C1.59039664,-0.103297922 0.842854053,-0.0968019791 0.380532878,0.365519196 C-0.0817882973,0.827840371 -0.0882842403,1.57538295 0.365932834,2.0456686 L4.31275739,5.99249316 L0.365932834,9.93931772 C0.0543619158,10.240243 -0.0705941097,10.6858679 0.0390917053,11.1049162 C0.14877752,11.5239645 0.476035509,11.8512225 0.895083801,11.9609083 C1.31413209,12.0705941 1.75975702,11.9456381 2.06068228,11.6340672 L6.00750684,7.68724261 L9.9543314,11.6340672 C10.424617,12.0882842 11.1721596,12.0817883 11.6344808,11.6194671 C12.096802,11.1571459 12.1032979,10.4096034 11.6490808,9.93931772 L7.70225629,5.99249316 L11.6490808,2.0456686 C12.1169731,1.57763507 12.1169731,0.818952679 11.6490808,0.350919152 Z"></path>
        </g>
    </g>
</svg>
