<?xml version="1.0" encoding="iso-8859-1"?>
<!-- Generator: Adobe Illustrator 19.0.0, SVG Export Plug-In . SVG Version: 6.00 Build 0)  -->
<svg version="1.1" id="Capa_1" xmlns="http://www.w3.org/2000/svg" xmlns:xlink="http://www.w3.org/1999/xlink" x="0px" y="0px"
	 viewBox="0 0 512 512" style="enable-background:new 0 0 512 512;" xml:space="preserve">
<path style="fill:#FFE88F;" d="M504,512H8c-4.418,0-8-3.582-8-8V8c0-4.418,3.582-8,8-8h496c4.418,0,8,3.582,8,8v496
	C512,508.418,508.418,512,504,512z"/>
<g>
	<path style="fill:#56ACE1;" d="M0,284.345V504c0,4.418,3.582,8,8,8h82.163V308.192L0,284.345z"/>
	<polygon style="fill:#56ACE1;" points="281.877,97.289 322.023,0 131.454,0 131.454,57.504 	"/>
	<path style="fill:#56ACE1;" d="M90.163,0H8C3.582,0,0,3.582,0,8v14.735l90.163,23.847V0z"/>
	<polygon style="fill:#56ACE1;" points="131.454,319.113 131.454,512 329.589,512 381.856,385.342 	"/>
	<polygon style="fill:#56ACE1;" points="131.454,276.403 397.746,346.835 463.297,187.983 131.454,100.214 	"/>
	<path style="fill:#56ACE1;" d="M366.691,0l-44.542,107.941l157.038,41.535L512,69.96V8c0-4.418-3.582-8-8-8H366.691z"/>
</g>
<path style="fill:#EEEFF2;" d="M325.635,99.492L366.691,0h-44.668l-37.476,90.816c-1.529,3.706-5.565,5.707-9.441,4.682
	l-137.699-36.42c-3.51-0.928-5.954-4.104-5.954-7.734V0h-41.29v36.192c0,5.25-4.971,9.076-10.046,7.734L0,22.735v42.71
	l84.209,22.273c3.51,0.928,5.954,4.104,5.954,7.734v159.639c0,5.25-4.971,9.076-10.046,7.734L0,241.635v42.71l84.209,22.272
	c3.51,0.928,5.954,4.104,5.954,7.734V512h41.29V319.113l241.566,63.892c4.678,1.237,7.195,6.312,5.35,10.786L329.589,512h44.668
	l45.2-109.533c1.529-3.706,5.565-5.707,9.441-4.682L512,419.764v-42.71l-65.146-17.23c-4.678-1.237-7.195-6.313-5.35-10.786
	l59.394-143.93c1.529-3.706,5.565-5.707,9.441-4.682l1.661,0.439V69.96l-30.142,73.043c-1.529,3.706-5.565,5.707-9.441,4.682
	l-141.433-37.408C326.307,109.04,323.789,103.965,325.635,99.492z M390.976,345.044l-253.568-67.066
	c-3.51-0.928-5.954-4.104-5.954-7.734V110.605c0-5.25,4.971-9.076,10.046-7.734l312.962,82.775c4.678,1.237,7.195,6.312,5.35,10.786
	l-59.393,143.93C398.888,344.068,394.852,346.069,390.976,345.044z"/>
<path style="fill:#66708D;" d="M221.149,281.493c-2.291-1.927-5.465-2.414-8.229-1.261L38.427,352.995
	c-6.418,2.677-6.425,12.078-0.01,14.764l81.496,34.107l47.573,74.442c3.748,5.864,13.009,4.228,14.544-2.541l41.772-184.384
	C224.464,286.464,223.44,283.42,221.149,281.493z"/>
<path style="fill:#556080;" d="M178.958,462.565l-47.573-74.442l-81.496-34.107c-2.005-0.839-3.383-2.335-4.134-4.077l-7.329,3.056
	c-6.418,2.677-6.425,12.078-0.01,14.764l81.496,34.107l47.573,74.442c3.749,5.864,13.009,4.228,14.544-2.541l1.77-7.811
	C181.912,465.536,180.154,464.436,178.958,462.565z"/>
<g>
</g>
<g>
</g>
<g>
</g>
<g>
</g>
<g>
</g>
<g>
</g>
<g>
</g>
<g>
</g>
<g>
</g>
<g>
</g>
<g>
</g>
<g>
</g>
<g>
</g>
<g>
</g>
<g>
</g>
</svg>
