<svg width="12px" height="12px" viewBox="0 0 12 12" version="1.1" xmlns="http://www.w3.org/2000/svg" xmlns:xlink="http://www.w3.org/1999/xlink">
    <g id="Page-1" stroke="none" stroke-width="1" fill-rule="evenodd">
        <g id="job-preferences" transform="translate(-666.000000, -912.000000)" fill-rule="nonzero">
            <g id="noun_356152_cc-copy-6" transform="translate(666.000000, 912.000000)">
                <g id="Group">
                    <g id="Shape">
                        <path d="M6,12 C2.6862915,12 0,9.3137085 0,6 C0,2.6862915 2.6862915,0 6,0 C9.3137085,0 12,2.6862915 12,6 C12,9.3137085 9.3137085,12 6,12 Z M6,10.9090909 C8.71121605,10.9090909 10.9090909,8.71121605 10.9090909,6 C10.9090909,3.28878395 8.71121605,1.09090909 6,1.09090909 C3.28878395,1.09090909 1.09090909,3.28878395 1.09090909,6 C1.09090909,8.71121605 3.28878395,10.9090909 6,10.9090909 Z M5.31818182,5.86424122 C5.31818182,5.48734938 5.62420844,5.18181818 6,5.18181818 C6.37655778,5.18181818 6.68181818,5.48595908 6.68181818,5.86424122 L6.68181818,8.59030424 C6.68181818,8.96719608 6.37579156,9.27272727 6,9.27272727 C5.62344222,9.27272727 5.31818182,8.96858637 5.31818182,8.59030424 L5.31818182,5.86424122 Z M5.18181818,3.54545455 C5.18181818,3.0935852 5.54905012,2.72727273 6,2.72727273 C6.45186934,2.72727273 6.81818182,3.09450466 6.81818182,3.54545455 C6.81818182,3.99732389 6.45094988,4.36363636 6,4.36363636 C5.54813066,4.36363636 5.18181818,3.99640443 5.18181818,3.54545455 Z"></path>
                    </g>
                </g>
            </g>
        </g>
    </g>
</svg>
