<svg xmlns="http://www.w3.org/2000/svg" width="53.188" height="67.438" viewBox="0 0 53.188 67.438">
  <path class="cls-1" d="M949.828,447.779H908.17a5.777,5.777,0,0,0-5.769,5.773v55.9a5.777,5.777,0,0,0,5.769,5.773h41.66a5.777,5.777,0,0,0,5.769-5.773V453.554A5.779,5.779,0,0,0,949.828,447.779Zm3.431,61.669a3.434,3.434,0,0,1-3.429,3.431H908.17a3.433,3.433,0,0,1-3.428-3.431v-55.9a3.433,3.433,0,0,1,3.428-3.431h41.659a3.436,3.436,0,0,1,3.43,3.433v55.894Zm-4.739-50.867h-6.415v-4.1a1.17,1.17,0,0,0-1.17-1.171h-23.87a1.17,1.17,0,0,0-1.17,1.171v4.1h-6.413a1.171,1.171,0,0,0-1.17,1.172v45.413a1.171,1.171,0,0,0,1.17,1.171H948.52a1.171,1.171,0,0,0,1.17-1.171V459.753A1.171,1.171,0,0,0,948.52,458.581Zm-30.285-2.928h21.53v4.1a3.449,3.449,0,0,1-3.443,3.446H921.681a3.45,3.45,0,0,1-3.446-3.446v-4.1h0Zm-7.583,48.341v-43.07h5.362a5.8,5.8,0,0,0,5.666,4.617h14.641a5.794,5.794,0,0,0,5.665-4.617h5.363V504h-36.7Zm11.015-37.477h-6.709a1.171,1.171,0,0,0-1.171,1.171V474.4a1.171,1.171,0,0,0,1.171,1.171h6.709a1.17,1.17,0,0,0,1.17-1.171v-6.715A1.171,1.171,0,0,0,921.667,466.517Zm-1.17,6.715h-4.369V468.86H920.5v4.372Zm21.765,0H926.348a1.171,1.171,0,1,0,0,2.342h15.914A1.171,1.171,0,1,0,942.262,473.232Zm-20.595,4.841h-6.709a1.171,1.171,0,0,0-1.171,1.171v6.715a1.171,1.171,0,0,0,1.171,1.171h6.709a1.171,1.171,0,0,0,1.17-1.171v-6.715A1.17,1.17,0,0,0,921.667,478.073Zm-1.17,6.714h-4.369v-4.372H920.5v4.372Zm21.765,0H926.348a1.172,1.172,0,0,0,0,2.343h15.914A1.172,1.172,0,0,0,942.262,484.787Zm-20.595,4.841h-6.709a1.171,1.171,0,0,0-1.171,1.171v6.715a1.171,1.171,0,0,0,1.171,1.171h6.709a1.17,1.17,0,0,0,1.17-1.171V490.8A1.171,1.171,0,0,0,921.667,489.628Zm-1.17,6.715h-4.369v-4.372H920.5v4.372Zm21.765,0H926.348a1.171,1.171,0,1,0,0,2.342h15.914A1.171,1.171,0,1,0,942.262,496.343Z" transform="translate(-902.406 -447.781)"/>
</svg>
