<svg
 xmlns="http://www.w3.org/2000/svg"
 xmlns:xlink="http://www.w3.org/1999/xlink"
 width="71px" height="79px">
<path fill-rule="evenodd"
 d="M65.080,35.329 C61.288,39.116 56.235,41.202 50.852,41.202 C47.851,41.202 44.832,40.518 42.122,39.224 L41.845,39.092 L34.595,46.335 L44.328,56.059 L35.209,65.168 L31.964,61.927 L28.106,65.781 L31.350,69.022 L22.231,78.133 L12.497,68.409 L9.253,71.650 L0.134,62.540 L32.725,29.982 L32.593,29.705 C28.907,22.001 30.475,12.784 36.494,6.772 C40.305,2.964 45.381,0.867 50.786,0.867 C56.192,0.867 61.268,2.964 65.080,6.772 C72.961,14.645 72.961,27.455 65.080,35.329 ZM22.231,72.876 L26.089,69.022 L22.844,65.781 L31.964,56.671 L35.209,59.912 L39.067,56.058 L31.964,48.963 L15.128,65.781 L22.231,72.876 ZM62.449,9.400 C59.339,6.292 55.197,4.581 50.786,4.581 C46.376,4.581 42.234,6.292 39.124,9.400 C33.837,14.681 32.810,22.894 36.627,29.373 L37.356,30.612 L5.395,62.540 L9.253,66.394 L41.215,34.466 L42.456,35.196 C45.004,36.694 47.908,37.486 50.853,37.486 C55.242,37.485 59.360,35.786 62.449,32.700 C65.559,29.593 67.272,25.456 67.272,21.050 C67.272,16.644 65.559,12.507 62.449,9.400 ZM54.032,24.248 L54.031,24.248 C52.307,24.247 50.687,23.579 49.471,22.364 C46.957,19.852 46.957,15.766 49.471,13.254 C50.687,12.039 52.306,11.370 54.031,11.370 C55.756,11.370 57.375,12.039 58.591,13.254 C59.807,14.469 60.476,16.086 60.476,17.809 C60.476,19.532 59.807,21.149 58.591,22.364 C57.375,23.579 55.756,24.248 54.032,24.248 ZM55.960,15.882 C55.446,15.368 54.760,15.085 54.031,15.085 C53.302,15.085 52.617,15.368 52.102,15.882 C51.038,16.945 51.038,18.673 52.102,19.736 C52.617,20.250 53.302,20.533 54.031,20.533 C54.760,20.533 55.446,20.250 55.960,19.736 C57.024,18.673 57.024,16.945 55.960,15.882 Z"/>
</svg>
