<svg xmlns="http://www.w3.org/2000/svg" width="18.469" height="17.656" viewBox="0 0 18.469 17.656">
  <path class="cls-1" d="M528.991,631.229h-2.409a0.6,0.6,0,0,0-.6.6v10.833a0.6,0.6,0,0,0,.6.6h2.409a0.6,0.6,0,0,0,.6-0.6V631.83A0.6,0.6,0,0,0,528.991,631.229Zm13.932,0c-0.1-.017-4.638,0-4.638,0l0.634-1.729c0.438-1.2.154-3.018-1.06-3.667a2.083,2.083,0,0,0-1.393-.2,1,1,0,0,0-.614.46,2.5,2.5,0,0,0-.193.853,3.683,3.683,0,0,1-1.021,1.951c-0.936.912-3.84,3.54-3.84,3.54v9.629h10.037a25.35,25.35,0,0,0,2.779-7.5A1.836,1.836,0,0,0,542.923,631.229Z" transform="translate(-525.969 -625.594)"/>
</svg>
