<svg width="17px" height="17px" viewBox="0 0 17 17" version="1.1" xmlns="http://www.w3.org/2000/svg" xmlns:xlink="http://www.w3.org/1999/xlink">
  <g id="Page-1" stroke="none" stroke-width="1" fill="none" fill-rule="evenodd">
    <g id="non-expand-option2" transform="translate(-254.000000, -300.000000)">
        <path d="M260.632331,306.33879 L260.632331,311.190347 L259.091135,311.190347 L259.091135,306.33879 L260.632331,306.33879 Z M260.733839,304.838008 C260.733839,305.303847 260.399154,305.676595 259.861764,305.676595 L259.851915,305.676595 C259.334499,305.676595 259,305.303847 259,304.838008 C259,304.362316 259.344687,304 259.871921,304 C260.399154,304 260.723836,304.362316 260.733839,304.838008 Z M266.190476,308.408613 L266.190414,311.190347 L264.649279,311.190347 L264.649279,308.594761 C264.649279,307.942806 264.426259,307.497929 263.86834,307.497929 C263.442551,307.497929 263.188938,307.797841 263.077551,308.087513 C263.0368,308.191326 263.026797,308.335969 263.026797,308.480966 L263.026797,311.190476 L261.485416,311.190476 C261.485416,311.190476 261.50573,306.794164 261.485416,306.338919 L263.026797,306.338919 L263.026797,307.026101 C263.23135,306.69576 263.597705,306.224866 264.415979,306.224866 C265.430158,306.224866 266.190476,306.918424 266.190476,308.408613 Z" id="Shape" fill="#0077b5"></path>
        <circle id="Oval" stroke="#0077b5" cx="262.5" cy="308.5" r="7.5"></circle>
    </g>
  </g>
</svg>
