<svg xmlns="http://www.w3.org/2000/svg" width="67.624" height="68.312" viewBox="0 0 67.624 68.312">
  <path class="cls-1" d="M543.971,512.16a1.28,1.28,0,1,1,0-2.56h3.354V496.86a3.647,3.647,0,0,1,3.644-3.642h6.862a3.647,3.647,0,0,1,3.644,3.642V509.6h8.033V485.111a3.647,3.647,0,0,1,3.644-3.642h6.862a3.647,3.647,0,0,1,3.644,3.642V509.6h8.033V464.923a3.647,3.647,0,0,1,3.644-3.642H602.2a3.647,3.647,0,0,1,3.643,3.642V509.6h3.189a1.28,1.28,0,1,1,0,2.56H543.971Zm51.364-48.319a1.084,1.084,0,0,0-1.083,1.082V509.6h9.027V464.923a1.083,1.083,0,0,0-1.082-1.082h-6.862Zm-22.183,20.188a1.084,1.084,0,0,0-1.083,1.082V509.6H581.1V485.111a1.084,1.084,0,0,0-1.082-1.082h-6.862Zm-22.183,11.749a1.084,1.084,0,0,0-1.083,1.082V509.6h9.027V496.86a1.083,1.083,0,0,0-1.082-1.082h-6.862Zm-0.316-13.221a1.28,1.28,0,0,1-.9-2.185l25.162-25.153a1.281,1.281,0,0,1,1.811,0l5.3,5.3L596.148,446.4h-5.516a1.28,1.28,0,1,1,0-2.56h8.5l0.028,0,0.078,0a1.27,1.27,0,0,1,.9.374,1.284,1.284,0,0,1,.372.971v0.04c0,0.011,0,.023,0,0.034v7.969a1.281,1.281,0,0,1-2.561,0v-5.018l-15.031,15.024a1.281,1.281,0,0,1-1.811,0l-5.3-5.3-24.257,24.247A1.273,1.273,0,0,1,550.653,482.557Z" transform="translate(-542.688 -443.844)"/>
</svg>
