<?xml version="1.0" encoding="utf-8"?>
<!-- Generator: Adobe Illustrator 21.0.2, SVG Export Plug-In . SVG Version: 6.00 Build 0)  -->
<svg version="1.1" id="Layer_1" xmlns="http://www.w3.org/2000/svg" xmlns:xlink="http://www.w3.org/1999/xlink" x="0px" y="0px"
   viewBox="0 0 646.7 144" style="enable-background:new 0 0 646.7 144;" xml:space="preserve">

<g>
  <path class="st0" d="M99.3,9.6c-34.8,0-63.2,28.4-63.2,63.2c0,34.8,28.4,63.2,63.2,63.2c34.8,0,63.2-28.4,63.2-63.2
    C162.5,37.9,134.2,9.6,99.3,9.6 M99.3,137.6c-35.8,0-64.9-29.1-64.9-64.9S63.6,7.9,99.3,7.9s64.9,29.1,64.9,64.9
    S135.1,137.6,99.3,137.6"/>
  <path class="st0" d="M107.4,35.6c3.3,1.3,5,3.8,5,7.6c0,2.5-0.9,4.9-2.5,7.3c7.5-6.9,15.4-12.7,24-14.8H107.4z"/>
  <path class="st0" d="M133.5,98.9l-0.5-0.8l-27.8-42c-0.1,0.1-0.1,0.1-0.2,0.2l-0.6,0.6L91.4,69.4V46.1c0-5.7,0.5-9.1,4.5-10.6H67
    c4.2,1.3,4.7,4.6,4.7,10.6v49.4c0,6-0.5,9.2-4.7,10.5h28.8c-3.9-1.4-4.4-4.7-4.4-10.5V69.9l15,23.3c2.7,4.3,4,7.3,4,9.4
    c0,1.3-0.7,2.7-2.1,3.5h32.6C137.5,105,135.9,102.6,133.5,98.9"/>
</g>
<g>
  <path class="st0" d="M583.1,93.4H612V86h-20.6v-8h17.9v-7.4h-17.9v-7.7h20.4v-7.4h-28.6V93.4z M548.6,93.4h8.4V63.1h11.6v-7.7
    h-31.5v7.7h11.6V93.4z M485.5,93.4h8.5l3.5-8.5h16.1l3.5,8.5h8.7l-16.3-38.3h-7.7L485.5,93.4z M500.5,77.5l5.1-12.3l5,12.3H500.5z
     M438.2,93.4H453c3,0,5.7-0.5,8.2-1.5c2.5-1,4.6-2.3,6.4-4c1.8-1.7,3.2-3.7,4.2-6c1-2.3,1.5-4.8,1.5-7.5v-0.1
    c0-2.7-0.5-5.2-1.5-7.5c-1-2.3-2.4-4.3-4.2-6c-1.8-1.7-3.9-3-6.4-4c-2.5-1-5.2-1.4-8.2-1.4h-14.8V93.4z M446.5,85.9V63h6.5
    c1.7,0,3.3,0.3,4.7,0.8c1.4,0.6,2.6,1.3,3.6,2.4c1,1,1.8,2.2,2.3,3.6c0.6,1.4,0.8,2.9,0.8,4.6v0.1c0,1.7-0.3,3.2-0.8,4.6
    c-0.6,1.4-1.3,2.6-2.3,3.6c-1,1-2.2,1.8-3.6,2.3c-1.4,0.5-3,0.8-4.7,0.8H446.5z M412.2,93.4h8.4v-38h-8.4V93.4z M361.2,93.4H376
    c3,0,5.7-0.5,8.2-1.5c2.5-1,4.6-2.3,6.4-4c1.8-1.7,3.2-3.7,4.2-6c1-2.3,1.5-4.8,1.5-7.5v-0.1c0-2.7-0.5-5.2-1.5-7.5
    c-1-2.3-2.4-4.3-4.2-6c-1.8-1.7-3.9-3-6.4-4c-2.5-1-5.2-1.4-8.2-1.4h-14.8V93.4z M369.5,85.9V63h6.5c1.7,0,3.3,0.3,4.7,0.8
    c1.4,0.6,2.6,1.3,3.6,2.4c1,1,1.8,2.2,2.3,3.6c0.6,1.4,0.8,2.9,0.8,4.6v0.1c0,1.7-0.3,3.2-0.8,4.6c-0.6,1.4-1.3,2.6-2.3,3.6
    c-1,1-2.2,1.8-3.6,2.3c-1.4,0.5-3,0.8-4.7,0.8H369.5z M310.1,93.4h8.3V69.3l18.4,24.2h7.1v-38h-8.3v23.4l-17.8-23.4h-7.7V93.4z
     M255.9,93.4h8.5l3.5-8.5h16.1l3.5,8.5h8.7l-16.3-38.3h-7.7L255.9,93.4z M270.8,77.5l5-12.3l5.1,12.3H270.8z M211.3,93.4h8.4V81.8
    l4.4-4.6l11.8,16.2h10l-16.2-21.9l15.5-16.1h-10.1L219.7,72V55.4h-8.4V93.4z"/>
</g>
</svg>
