
<svg width="512px" height="512px" viewBox="0 0 131 131" version="1.1" xmlns="http://www.w3.org/2000/svg" xmlns:xlink="http://www.w3.org/1999/xlink">
    <g id="Page-1" stroke="none" stroke-width="1" fill-rule="evenodd">
        <g id="logoletter" fill-rule="nonzero">
            <path d="M65.3,2.6 C30.5,2.6 2.1,31 2.1,65.8 C2.1,100.6 30.5,129 65.3,129 C100.1,129 128.5,100.6 128.5,65.8 C128.5,30.9 100.2,2.6 65.3,2.6 M65.3,130.6 C29.5,130.6 0.4,101.5 0.4,65.7 C0.4,29.9 29.6,0.9 65.3,0.9 C101,0.9 130.2,30 130.2,65.8 C130.2,101.6 101.1,130.6 65.3,130.6" id="Shape"></path>
            <path d="M73.4,28.6 C76.7,29.9 78.4,32.4 78.4,36.2 C78.4,38.7 77.5,41.1 75.9,43.5 C83.4,36.6 91.3,30.8 99.9,28.7 L73.4,28.7 L73.4,28.6 Z" id="Path"></path>
            <path d="M99.5,91.9 L99,91.1 L71.2,49.1 C71.1,49.2 71.1,49.2 71,49.3 L70.4,49.9 L57.4,62.4 L57.4,39.1 C57.4,33.4 57.9,30 61.9,28.5 L33,28.5 C37.2,29.8 37.7,33.1 37.7,39.1 L37.7,88.5 C37.7,94.5 37.2,97.7 33,99 L61.8,99 C57.9,97.6 57.4,94.3 57.4,88.5 L57.4,62.9 L72.4,86.2 C75.1,90.5 76.4,93.5 76.4,95.6 C76.4,96.9 75.7,98.3 74.3,99.1 L106.9,99.1 C103.5,98 101.9,95.6 99.5,91.9" id="Path"></path>
        </g>
    </g>
</svg>
