<svg width="10px" height="10px" viewBox="0 0 10 10" version="1.1" xmlns="http://www.w3.org/2000/svg" xmlns:xlink="http://www.w3.org/1999/xlink">
    <g id="Page-1" stroke="none" stroke-width="1" fill="none" fill-rule="evenodd">
        <g id="1-asked-question-and-indicated-interest-copy" transform="translate(-443.000000, -227.000000)" fill-rule="nonzero">
            <g id="Group-2-Copy-4" transform="translate(339.000000, 223.000000)">
                <path d="M109,4.734375 C106.703125,4.734375 104.828125,6.609375 104.828125,8.90625 C104.828125,10.015625 105.265625,11.0625 106.046875,11.859375 L106.09375,11.90625 L106.125,11.953125 C106.203125,12.125 106.21875,12.296875 106.15625,12.484375 C106.109375,12.640625 106.015625,12.75 105.9375,12.859375 L105.640625,13.265625 C105.9375,13.265625 106.203125,13.21875 106.4375,13.15625 L106.53125,13.125 C106.578125,13.109375 106.625,13.09375 106.671875,13.078125 C106.828125,13.03125 106.96875,12.96875 107.125,12.90625 C107.203125,12.859375 107.328125,12.828125 107.46875,12.8125 L107.578125,12.8125 L107.640625,12.828125 C108.078125,12.984375 108.546875,13.0625 109.015625,13.0625 C111.3125,13.0625 113.1875,11.1875 113.1875,8.890625 C113.171875,6.609375 111.296875,4.734375 109,4.734375 Z" id="Shape" fill="#5E80FF"></path>
            </g>
        </g>
    </g>
</svg>