<svg enable-background="new 0 0 104.5 22.9" viewBox="0 0 104.5 22.9" xmlns="http://www.w3.org/2000/svg">
  <g>
    <path d="m40.9 14.3c.3-.7.4-1.5.4-2.3v-2.4c0-1.6-.5-3-1.6-4.1-1-1.1-2.4-1.6-4-1.6s-2.9.5-3.9 1.6-1.5 2.5-1.5 4.1v2.4c0 1.7.5 3 1.5 4.1s2.3 1.6 3.9 1.6c.4 0 .8 0 1.2-.1s.7-.2 1.1-.3l2.5 2.4 1.5-1.3-2.2-2.2c.4-.5.8-1.2 1.1-1.9zm-1.9-2.3c0 1.1-.3 2.1-.9 2.8s-1.4 1.1-2.4 1.1-1.8-.4-2.4-1.1-.9-1.7-.9-2.8v-2.5c0-1.1.3-2.1.9-2.8s1.4-1.1 2.3-1.1c1 0 1.8.4 2.4 1.1.7.8 1 1.7 1 2.8z"/><path d="m49.7 14.8c-.2.4-.5.7-.9.8-.4.2-.8.3-1.4.3s-1-.2-1.3-.5c-.3-.4-.4-1-.4-1.8v-6h-2.2v6c0 1.4.3 2.5.9 3.2s1.4 1 2.5 1c.6 0 1.2-.1 1.7-.4s.9-.7 1.2-1.2l.2 1.5h2v-10h-2.3z"/>
    <path d="m62.3 15.2v-4.5c0-1.1-.4-2-1.1-2.6s-1.7-.9-2.8-.9c-1.2 0-2.2.3-2.9.9-.8.6-1.1 1.3-1.1 2.1v.1h2.2c0-.4.2-.7.5-1 .3-.2.7-.4 1.2-.4.6 0 1 .1 1.3.4s.5.7.5 1.2v.9h-1.8c-1.4 0-2.5.3-3.2.8-.8.5-1.2 1.3-1.2 2.3 0 .9.3 1.7.8 2.2.6.5 1.4.8 2.4.8.6 0 1.2-.2 1.7-.5s.9-.7 1.2-1.2c0 .2.1.5.1.7s.1.5.2.7h2.3c-.1-.4-.2-.7-.3-1.1 0-.1 0-.5 0-.9zm-2.2-.7c-.1.4-.5.7-.9 1-.5.3-1 .4-1.5.4s-.8-.1-1.1-.3c-.2-.2-.4-.5-.4-.9s.2-.8.6-1.1.9-.5 1.5-.5h1.8z"/><path d="m64.8 3.1h2.3v14.5h-2.3z"/><path d="m69.8 7.5h2.3v10h-2.3z"/><path d="m69.8 3.1h2.3v2h-2.3z"/><path d="m78.7 2.9c-1.1 0-1.9.3-2.5.9s-.9 1.5-.9 2.6v1.2h-1.5v1.7h1.5v8.4h2.3v-8.5h2v-1.7h-2v-1.2c0-.5.1-.9.4-1.2s.6-.4 1.1-.4h.5c.2 0 .3 0 .4.1l.2-1.7c-.4-.1-.6-.1-.8-.2-.2 0-.5 0-.7 0z"/><path d="m81.4 7.5h2.3v10h-2.3z"/><path d="m81.4 3.1h2.3v2h-2.3z"/><path d="m90.2 7.3c-1.3 0-2.3.5-3.1 1.4-.8 1-1.3 2.2-1.3 3.6v.4c0 1.5.4 2.7 1.3 3.6.8.9 2 1.4 3.4 1.4.8 0 1.5-.1 2.2-.3.6-.2 1.1-.5 1.5-.8l-.7-1.5c-.4.3-.8.5-1.3.6-.4.1-1 .2-1.6.2-.8 0-1.4-.3-1.8-.8s-.7-1.2-.7-2h6.3v-1.3c0-1.4-.4-2.5-1.1-3.3s-1.8-1.2-3.1-1.2zm1.9 4.2h-4c.1-.7.3-1.2.7-1.7.4-.4.8-.7 1.4-.7.7 0 1.1.2 1.5.6.3.4.5.9.5 1.6v.2z"/><path d="m102.3 3.1v5.5c-.3-.4-.7-.7-1.1-.9s-.9-.3-1.5-.3c-1.2 0-2.2.5-2.9 1.5s-1 2.3-1 3.9v.2c0 1.5.3 2.6 1 3.5s1.6 1.3 2.9 1.3c.6 0 1.1-.1 1.6-.4s.8-.6 1.2-1.1l.2 1.2h1.9v-14.4zm0 11.6c-.2.4-.5.7-.8.9s-.7.3-1.2.3c-.8 0-1.3-.3-1.7-.8s-.6-1.3-.6-2.3v-.2c0-1 .2-1.9.5-2.5.4-.6.9-1 1.7-1 .5 0 .9.1 1.2.3s.6.5.8.9v4.4z"/><path d="m6.9 10.5c-.2-.2-.5-.3-.8-.3s-.6.1-.8.3c-.4.4-.4 1.1 0 1.5l3.7 3.6c.2.2.5.3.8.3h.1c.3 0 .6-.2.8-.4l9.1-10.9c.4-.4.3-1.1-.1-1.5-.4-.1-.7-.2-.9-.2-.3 0-.6.1-.8.4l-8.3 10z"/><path d="m20.3 5.2c-.2 0-.4.1-.6.2-.5.3-.6 1-.3 1.5 2.3 3.6 1.7 8.1-1.5 11.3-1.7 1.7-4.1 2.7-6.5 2.7-2.5 0-4.8-1-6.5-2.7s-2.7-4.1-2.7-6.5c0-2.5 1-4.8 2.7-6.5 1.8-2.1 4.1-3.1 6.6-3.1 1.6 0 3.2.5 4.6 1.3.2.1.4.2.6.2.4 0 .7-.2.9-.5.3-.5.2-1.1-.3-1.5-1.8-1-3.8-1.6-5.8-1.6-3 0-5.9 1.2-8.1 3.5-4.4 4.4-4.4 11.7 0 16.1 2.2 2.2 5 3.3 8 3.3s5.9-1.2 8-3.3c3.9-3.9 4.6-9.5 1.8-13.9-.2-.3-.5-.5-.9-.5z"/>
  </g>
</svg>
