<svg xmlns="http://www.w3.org/2000/svg" width="76.82" height="76.812" viewBox="0 0 76.82 76.812">
  <path class="cls-1" d="M1275.88,461.92a3.843,3.843,0,0,0-3.84,3.84h2.56a1.28,1.28,0,0,1,2.56,0h2.56A3.843,3.843,0,0,0,1275.88,461.92Zm10.24,0a3.843,3.843,0,0,0-3.84,3.84h2.56a1.28,1.28,0,1,1,2.56,0h2.56A3.843,3.843,0,0,0,1286.12,461.92ZM1281,496.48a5.12,5.12,0,1,0,5.12,5.12A5.127,5.127,0,0,0,1281,496.48Zm0,7.68a2.56,2.56,0,1,1,2.56-2.56A2.564,2.564,0,0,1,1281,504.16Zm30.72,7.68V495.2a19.22,19.22,0,0,0-19.2-19.2h-1.39a17.112,17.112,0,0,0,1.29-1.28h1.38a6.407,6.407,0,0,0,6.4-6.4v-2.255a5.748,5.748,0,0,0-.02-9.579,19.182,19.182,0,0,0-38.36,0A5.754,5.754,0,0,0,1265,467.04h0.87a15.3,15.3,0,0,0,5.01,8.96h-1.4a19.22,19.22,0,0,0-19.2,19.2v16.64h-7.68v2.56h76.8v-2.56h-7.68Zm-14.08-43.52a3.83,3.83,0,0,1-3.33,3.788,15.265,15.265,0,0,0,1.82-5.068H1297a5.547,5.547,0,0,0,.64-0.065v1.345Zm2.56-7.04a3.2,3.2,0,0,1-3.2,3.2h-0.64v-6.4H1297A3.2,3.2,0,0,1,1300.2,461.28Zm-34.56,3.2H1265a3.2,3.2,0,0,1,0-6.4h0.64v6.4Zm-0.64-8.96a5.176,5.176,0,0,0-.58.059,16.624,16.624,0,0,1,33.16,0,5.176,5.176,0,0,0-.58-0.059h-0.87a15.342,15.342,0,0,0-30.26,0H1265Zm28.8,2.528c-9.24-.325-15.36-4.1-15.36-7.648a1.28,1.28,0,0,0-2.56,0c0,3.2-3.31,5.85-7.61,6.319A12.8,12.8,0,0,1,1293.8,458.048Zm-25.6,6.432v-5.192c4-.346,7.39-2.274,9.08-4.974,2.68,3.548,8.94,6.046,16.52,6.3v3.866a12.743,12.743,0,0,1-2.58,7.68H1281v2.56h7.65A12.792,12.792,0,0,1,1268.2,464.48Zm8.84,14.825a14.923,14.923,0,0,0,7.92,0l-3.96,7.913Zm1.89,9.5h-2.26l-5.12-10.24h2.26Zm9.26-10.24h2.26l-5.12,10.24h-2.26Zm-31.51,16.64v16.64h-3.84V495.2a16.644,16.644,0,0,1,15.87-16.6l5.1,10.2h-10.73A6.407,6.407,0,0,0,1256.68,495.2Zm46.08,16.64h-43.52V495.2a3.843,3.843,0,0,1,3.84-3.84h35.84a3.843,3.843,0,0,1,3.84,3.84v16.64Zm6.4,0h-3.84V495.2a6.407,6.407,0,0,0-6.4-6.4h-10.73l5.1-10.2a16.644,16.644,0,0,1,15.87,16.6v16.64Zm-11.52-11.52h2.56v8.96h-2.56v-8.96Zm0-5.12h2.56v2.56h-2.56V495.2Z" transform="translate(-1242.59 -437.594)"/>
</svg>
