<svg width="9px" height="9px" viewBox="0 0 9 9" version="1.1" xmlns="http://www.w3.org/2000/svg" xmlns:xlink="http://www.w3.org/1999/xlink">
    <g id="Page-1" stroke="none" stroke-width="1" fill="none" fill-rule="evenodd">
        <g id="1-asked-question-and-indicated-interest-copy" transform="translate(-20.000000, -91.000000)" fill="#82889D" fill-rule="nonzero">
            <path d="M26.415775,96.8617041 C26.9303531,96.2237706 27.2100107,95.4351331 27.2100107,94.6060603 C27.2100107,92.6177103 25.5928514,91 23.6050555,91 C21.6171593,91 20,92.6177103 20,94.6060603 C20,96.5937078 21.6171593,98.2112175 23.6050555,98.2112175 C24.446536,98.2112175 25.2435803,97.9243581 25.8866524,97.396292 L28.4659623,100 L29,99.4712316 L26.415775,96.8617041 Z M23.6050555,97.8354608 C21.8241942,97.8354608 20.3758526,96.3868159 20.3758526,94.6060603 C20.3758526,92.8247026 21.8241942,91.3760577 23.6050555,91.3760577 C25.3851144,91.3760577 26.8342584,92.8247026 26.8342584,94.6060603 C26.8342584,96.3868159 25.3851144,97.8354608 23.6050555,97.8354608 Z" id="Shape-Copy"></path>
        </g>
    </g>
</svg>
