<svg xmlns="http://www.w3.org/2000/svg" width="28.124" height="26.876" viewBox="0 0 28.124 26.876">
  <defs>
    <style>
      .cls-1 {
        fill-rule: evenodd;
      }
    </style>
  </defs>
  <path class="cls-1" d="M497.454,859.143a7.534,7.534,0,1,0-7.535-7.545A7.541,7.541,0,0,0,497.454,859.143Zm0-13.1a5.556,5.556,0,1,1-5.547,5.556A5.568,5.568,0,0,1,497.454,846.042Zm-13.035,24.883h26.162a0.987,0.987,0,0,0,.994-1,9.471,9.471,0,0,0-9.453-9.467h-9.244a9.47,9.47,0,0,0-9.453,9.467A0.987,0.987,0,0,0,484.419,870.925Zm8.459-8.472h9.244a7.464,7.464,0,0,1,7.4,6.481H485.482A7.483,7.483,0,0,1,492.878,862.453Z" transform="translate(-483.438 -844.062)"/>
</svg>
