
<svg width="510px" height="510px" viewBox="0 0 510 510" version="1.1" xmlns="http://www.w3.org/2000/svg" xmlns:xlink="http://www.w3.org/1999/xlink">
    <g id="Page-1" stroke="none" stroke-width="1" fill="none" fill-rule="evenodd">
        <g id="workable_symbol">
            <polygon id="Fill-1" fill="#FFFFFE" points="0 509.94 510 509.94 510 0 0 0"></polygon>
            <path d="M301.384,263.824 C312.464,244.269 318.112,226.865 317.901,213.417 C317.641,196.907 311.074,184.611 301.384,176.462 C272.254,151.981 214.879,165.048 215.648,214.178 C215.936,232.727 224.943,256.729 248.354,285.666 C248.354,285.666 261.404,273.986 264.272,263.502 C202.117,179.021 332.769,174.424 267.76,268.085 C267.76,268.085 260.25,280.307 250.677,288.497 C230.412,307.612 212.061,313.649 196.051,311.021 C140.484,301.913 131.624,218.994 127.501,169.694 L86.703,169.694 C86.686,170.237 86.681,170.794 86.669,171.342 L86.669,180.564 C88.803,278.392 158.031,414.485 268.673,307.441 C279.636,296.461 285.868,287.714 285.868,287.714 C291.855,279.492 297.037,271.493 301.384,263.824" id="Fill-3" fill="#186E62"></path>
            <path d="M396.211,217.324 C395.857,218.574 395.592,219.896 395.405,221.297 C387.95,278.745 354.674,327.288 304.488,300.56 C303.496,301.938 302.454,303.273 301.384,304.567 C296.364,310.608 290.599,315.731 285.318,319.794 C285.186,319.713 285.033,319.648 284.871,319.606 C290.397,323.066 295.907,325.827 301.384,327.939 C363.343,351.897 419.885,292.677 425.331,218.631 L396.211,217.324" id="Fill-4" fill="#186E62"></path>
        </g>
    </g>
</svg>
